<?xml version="1.0" standalone="no"?>
<!DOCTYPE svg PUBLIC "-//W3C//DTD SVG 20010904//EN"
 "http://www.w3.org/TR/2001/REC-SVG-20010904/DTD/svg10.dtd">
<svg version="1.0" xmlns="http://www.w3.org/2000/svg"
 width="700.000000pt" height="700.000000pt" viewBox="0 0 700.000000 700.000000"
 preserveAspectRatio="xMidYMid meet">
<metadata>
Created by potrace 1.14, written by Peter Selinger 2001-2017
</metadata>
<g transform="translate(0.000000,700.000000) scale(0.100000,-0.100000)"
fill="#000000" stroke="none">
<path d="M2210 6558 c-215 -23 -437 -134 -596 -298 -75 -77 -111 -132 -376
-570 -206 -339 -683 -1124 -717 -1177 -36 -59 -61 -99 -197 -323 -65 -107
-132 -224 -150 -260 -134 -269 -133 -592 3 -866 25 -49 908 -1509 988 -1634
13 -19 94 -152 181 -295 176 -291 208 -337 285 -413 157 -153 348 -248 559
-276 124 -17 2560 -14 2648 3 254 49 482 187 622 376 21 28 171 271 335 540
164 270 328 540 365 600 37 61 131 216 210 345 78 129 153 251 165 270 26 41
219 359 248 410 68 117 116 255 136 384 25 172 -11 389 -94 556 -18 36 -240
407 -495 825 -254 418 -470 774 -480 790 -72 124 -360 590 -390 630 -106 142
-276 267 -446 328 -174 63 -107 60 -1484 61 -690 1 -1284 -2 -1320 -6z"/>
</g>
</svg>
