<?xml version="1.0" standalone="no"?>
<!DOCTYPE svg PUBLIC "-//W3C//DTD SVG 20010904//EN"
 "http://www.w3.org/TR/2001/REC-SVG-20010904/DTD/svg10.dtd">
<svg version="1.0" xmlns="http://www.w3.org/2000/svg"
 width="700.000000pt" height="700.000000pt" viewBox="0 0 700.000000 700.000000"
 preserveAspectRatio="xMidYMid meet">
<metadata>
Created by potrace 1.14, written by Peter Selinger 2001-2017
</metadata>
<g transform="translate(0.000000,700.000000) scale(0.100000,-0.100000)"
fill="#000000" stroke="none">
<path d="M2277 6564 c-1 -1 -27 -4 -58 -7 -222 -23 -420 -118 -585 -282 -102
-100 -79 -66 -622 -960 -64 -104 -158 -259 -209 -343 -51 -84 -101 -166 -111
-182 -9 -17 -124 -206 -256 -421 -131 -216 -253 -424 -271 -463 -122 -264
-118 -582 10 -837 32 -63 7 -22 490 -814 208 -341 446 -732 530 -870 289 -477
316 -520 357 -572 150 -195 403 -337 655 -369 95 -12 2503 -10 2588 2 111 16
171 32 250 65 17 7 32 13 35 14 16 4 104 54 155 88 76 51 199 175 252 253 36
54 89 141 239 389 29 50 58 97 63 105 5 8 45 74 89 145 43 72 154 254 247 405
169 277 303 498 379 622 23 37 70 115 106 174 36 58 72 118 80 133 8 14 39 65
68 113 140 230 185 422 158 671 -14 131 -73 288 -158 429 -13 20 -46 74 -74
120 -28 46 -154 252 -279 458 -125 206 -271 445 -323 530 -52 85 -103 169
-112 185 -10 17 -40 67 -69 112 -28 46 -51 87 -51 93 0 5 -3 10 -7 10 -5 0
-13 10 -19 23 -14 29 -307 508 -347 567 -42 62 -181 198 -247 241 -140 92
-292 148 -450 165 -52 6 -2497 13 -2503 8z"/>
</g>
</svg>
